<?xml version="1.0" encoding="UTF-8"?>
<svg id="Layer_2" data-name="Layer 2" xmlns="http://www.w3.org/2000/svg" viewBox="0 0 212.93 70.32">
  <defs>
    <style>
      .cls-1 {
        fill: #fff;
        stroke-width: 0px;
      }
    </style>
  </defs>
  <g id="Layer_1-2" data-name="Layer 1">
    <g>
      <path class="cls-1" d="M5.99,68.37c-.75,2.03-1.82,2.57-3.42,1.18-1.39-1.18-2.57-3.85-2.57-6.53,0-1.6.21-3.42.75-5.24,1.18-3.53,3.53-9.09,6.53-15.19.21-12.63.96-29.1,3-38.95.54-2.57,1.6-2.78,3.32-1.82,2.57,1.6,5.14,5.99,4.92,12.95-.21,5.88-1.07,10.27-1.5,17.97,9.63-10.38,22.68-23,30.92-30.49,1.93-1.82,3.42-1.5,3.85.21.75,3.21,0,8.67-6.42,14.98-12.3,11.66-20.01,18.94-29.64,29.32-3.96,7.81-7.6,15.51-9.74,21.61Z"/>
      <path class="cls-1" d="M44.73,69.01c-4.49-1.82-8.67-5.78-8.67-13.27,0-2.03.21-4.07.75-6.42,2.89-11.66,14.98-31.67,24.61-46.44,1.5-2.14,3.21-1.82,4.49.11.86,1.39,1.39,2.89,1.39,4.81,0,2.46-.86,5.88-3.32,10.49-5.14,9.52-15.41,25.46-18.3,36.59-.43,1.93-.75,3.64-.75,5.03,0,3.53,1.6,5.03,3.96,5.03,5.46,0,12.52-8.45,18.83-20.86,5.78-11.23,17.44-32.1,23.22-41.3,1.39-2.25,3.1-1.82,4.39.11.64,1.18,1.07,2.78,1.07,4.39,0,2.35-.64,5.56-2.35,9.2-3.64,8.13-16.8,32.53-23.86,42.26-5.67,7.81-12.73,11.45-19.26,11.45-2.35,0-4.39-.43-6.21-1.18Z"/>
      <path class="cls-1" d="M129.57,45.47c.54,1.18.75,2.46.75,3.53,0,6.21-5.78,12.41-9.63,15.3-4.39,3.1-9.2,4.39-13.8,4.39-3.53,0-6.74-.75-9.42-2.25-5.03-2.67-9.42-9.42-9.63-18.19-.43-21.61,18.72-40.98,30.81-46.44,2.78-1.07,5.78-1.82,8.45-1.82s5.14.75,6.95,2.25c3.64,3.21,6.42,7.38,6.42,11.55,0,1.93-.43,4.07-1.5,6.21-1.82,3.64-3.32,7.28-4.07,9.63-.54,1.82-2.03,2.89-4.17,1.6-2.14-1.39-3.64-3.75-3.64-6.85,0-1.28.21-2.57.64-3.96.43-1.6,1.18-3.32,1.82-4.92,1.5-3.75,2.78-7.17,1.5-8.56-2.57-2.78-17.76,6.53-26.64,20.86-4.71,7.6-6.74,16.37-6.74,22.79,0,9.2,4.07,13.27,7.92,13.27,5.88,0,13.48-6.85,19.69-18.72.75-1.5,3.21-2.14,4.28.32Z"/>
      <path class="cls-1" d="M160.82,68.16c-3.96-7.6-8.02-14.66-12.52-21.18-3.42,6.63-6.85,13.8-9.95,21.29-.86,2.03-2.25,2.46-3.75.54-.96-1.5-1.71-3.32-1.71-5.78,0-1.82.32-3.96.96-6.42,2.68-8.88,20.86-44.62,27.39-53.71,1.61-2.14,3-2.03,4.39.21.64,1.18,1.18,2.89,1.18,4.71,0,2.78-.75,6.63-3.42,11.34-4.17,7.49-5.03,8.77-8.13,14.44,12.41-9.63,25.89-20.33,35.42-31.56,1.18-1.39,2.67-1.07,3.32.86.75,2.14.43,6.21-3.53,11.56-4.6,6.42-19.04,18.94-32.85,28.89,3.1,5.03,5.99,10.06,7.28,12.84,1.07,2.57,1.6,5.14,1.6,6.85,0,2.14-.86,4.17-1.82,5.46-1.07,1.5-2.78,1.71-3.85-.32Z"/>
      <path class="cls-1" d="M180.61,57.56c1.93,0,4.07,1.39,5.24,3.74,1.18,2.78.32,5.78-.86,7.49-1.71,2.03-5.78,1.39-7.7-1.61-.75-1.28-1.28-2.78-1.28-3.85,0-2.78,2.03-5.78,4.6-5.78ZM207.47,2.14c1.5-2.25,3.21-2.46,4.39.11.54,1.18,1.07,2.57,1.07,4.17,0,3-1.07,7.17-3.96,12.41-5.78,10.38-14.66,26.96-20.01,38.62-.96,1.93-1.82,2.35-3.64.54-1.18-1.18-2.03-2.89-2.03-5.46,0-1.5.43-3.85,1.5-6.63,4.17-11.34,14.66-32.1,22.68-43.76Z"/>
    </g>
  </g>
</svg>